# xmcd
#
# Track frame offsets:
#	150
#	12837
#	22350
#	35627
#	49230
#	61550
#	73685
#	86850
#	100927
#	115107
#	126890
#	139565
#	150040
#	162207
#	175630
#	190735
#	205397
#	216850
#	233157
#	244372
#	256352
#	268352
#
# Disc length: 3732 seconds
#
# Revision: 2
# Processed by: cddbd v1.5.2PL0 Copyright (c) Steve Scherf et al.
# Submitted via: audiograbber 1.82.02
#
DISCID=380e9216
DTITLE=Various Artist - Te Back Porch Boys
DYEAR=2006
DGENRE=Blues
TTITLE0=Slim Seward and Louis 'Jelly Belly' Hayes - Big Hip Mamma
TTITLE1=Slim Seward and Louis 'Jelly Belly' Hayes - Good Boy, Long Way from Home
TTITLE2=Slim Seward and Louis 'Jelly Belly' Hayes - King Kong Blues
TTITLE3=Slim Seward and Louis 'Jelly Belly' Hayes - Sweet Woman Blues
TTITLE4=Slim Seward and Louis 'Jelly Belly' Hayes - Friday the Thirteenth Blues
TTITLE5=Slim Seward and Louis 'Jelly Belly' Hayes - Sorry Woman Blues
TTITLE6=Slim Seward and Louis 'Jelly Belly' Hayes - Be Kind Blues
TTITLE7=Slim Seward and Louis 'Jelly Belly' Hayes - Water Trough Blues
TTITLE8=Champion Jack Dupree - That's All Right with Me
TTITLE9=Champion Jack Dupree - She Can Shake It
TTITLE10=Champion Jack Dupree - Doomed
TTITLE11=Champion Jack Dupree - Rub a Little Boogie
TTITLE12=Dennis McMillon - Goin' Back Home
TTITLE13=Slim Seward and Louis 'Jelly Belly' Hayes - Big Hip Mamma
TTITLE14=Slim Seward and Louis 'Jelly Belly' Hayes - Sorry Woman Blues
TTITLE15=Slim Seward and Louis 'Jelly Belly' Hayes - Be Kind Blues
TTITLE16=Dennis McMillon - Goin' Back Home
TTITLE17=Blind Willie McTell - It's My Desire
TTITLE18=Blind Willie McTell - River Jordan
TTITLE19=Blind Willie McTell - How About You
TTITLE20=Blind Willie McTell - It's My Desire
TTITLE21=Blind Willie McTell - Hide Me In Thy Bosom
EXTD=
EXTT0=
EXTT1=
EXTT2=
EXTT3=
EXTT4=
EXTT5=
EXTT6=
EXTT7=
EXTT8=
EXTT9=
EXTT10=
EXTT11=
EXTT12=
EXTT13=
EXTT14=
EXTT15=
EXTT16=
EXTT17=
EXTT18=
EXTT19=
EXTT20=
EXTT21=
PLAYORDER=
